<?xml version="1.0" encoding="UTF-8"?>
<svg id="nav-logo" xmlns="http://www.w3.org/2000/svg" viewBox="0 0 112.92 77.49">
  <defs>
    <style>
      .navlogo {
        fill: #faf9f6;
        stroke-width: 0px;
      }
    </style>
  </defs>
  <path class="navlogo" d="m0,42.07c0-5.87,3.32-9.41,9.3-10.52,29.34-5.31,22.36-22.58,16.38-22.58-4.65,0-7.08,8.52,1.22,8.52-1.11,6.42-12.29,9.19-19.93,9.19-3.32,0-5.98-.55-6.86-1.55V0h54.13v77.38h-14.5c5.65-19.37-5.76-41.29-14.17-41.29-.66,0-1.33.11-1.99.44-9.63,4.65,2.1,14.28,3.1,4.32,4.98,4.87,13.4,15.5,6.97,36.53H.11c-.11-12.07-.11-25.57-.11-35.31Z"/>
  <path class="navlogo" d="m58.78,20.37c6.31,9.3,33.54,15.05,26.79,33.99-.55-1.88-1.88-2.77-3.21-2.77-1.77,0-3.54,1.55-3.65,4.21-.11,2.32,1.99,3.99,4.43,3.99,3.1,0,6.86-2.66,7.42-9.74,1.66-24.02-27.56-26.57-31.77-50.04h54.13v77.49h-54.24c.11-19.93.11-41.62.11-57.12Z"/>
</svg>