<?xml version="1.0" encoding="UTF-8"?>
<svg id="bgshape" xmlns="http://www.w3.org/2000/svg" viewBox="0 0 325.85 322.63">
  <defs>
    <style>
      .cls-1 {
        fill: #d0f56e;
        stroke-width: 0px;
      }
    </style>
  </defs>
  <path id="shape" d="m316.93,161.32c0,6.8-26.82,11.63-27.75,18.17-.96,6.71,23.41,18.85,21.55,25.22-1.9,6.48-28.98,3.54-31.75,9.59-2.8,6.12,17.13,24.68,13.52,30.29-3.64,5.65-28.79-4.82-33.17.24-4.39,5.06,9.53,28.48,4.46,32.87-5.05,4.38-26.26-12.71-31.91-9.07-5.61,3.61,1.17,30-4.95,32.8-6.05,2.77-21.57-19.61-28.05-17.71s-7.33,29.09-14.04,30.05c-6.55.93-15.1-24.92-21.91-24.92s-15.36,25.85-21.9,24.92c-6.71-.96-7.67-28.18-14.04-30.05-6.48-1.9-21.99,20.48-28.05,17.71-6.12-2.8.66-29.19-4.95-32.8-5.65-3.64-26.85,13.46-31.91,9.07-5.06-4.39,8.86-27.81,4.46-32.87-4.38-5.05-29.54,5.41-33.17-.24-3.61-5.61,16.32-24.17,13.52-30.29-2.77-6.05-29.85-3.11-31.75-9.59-1.87-6.37,22.5-18.51,21.55-25.22-.93-6.55-27.75-11.37-27.75-18.17s26.82-11.63,27.75-18.17c.96-6.71-23.41-18.85-21.55-25.22s28.98-3.54,31.75-9.59-17.13-24.68-13.52-30.29c3.64-5.65,28.79,4.82,33.17-.24,4.39-5.06-9.53-28.48-4.46-32.87,5.05-4.38,26.26,12.71,31.91,9.07,5.61-3.61-1.17-30,4.95-32.8,6.05-2.77,21.57,19.61,28.05,17.71,6.37-1.87,7.33-29.09,14.04-30.05,6.55-.93,15.1,24.92,21.91,24.92s15.36-25.85,21.9-24.92c6.71.96,7.67,28.18,14.04,30.05,6.48,1.9,21.99-20.48,28.05-17.71s-.66,29.19,4.95,32.8c5.65,3.64,26.85-13.46,31.91-9.07,5.06,4.39-8.86,27.81-4.46,32.87,4.38,5.05,29.54-5.41,33.17.24,3.61,5.61-16.32,24.17-13.52,30.29,2.77,6.05,29.85,3.11,31.75,9.59,1.87,6.37-22.5,18.51-21.55,25.22.93,6.55,27.75,11.37,27.75,18.17Z"/>
</svg>